#!OML:ASF H:\BabyWalks\Project 1\Capture day 1\Session 1\baby.ASF
:FULLY-SPECIFIED
:DEGREES
559
root 24.471 17.5903 11.9305 4.14564 61.5864 0.452552
lowerback 19.4271 -2.42923 3.65443
upperback 6.26483 -2.06987 2.28492
thorax -4.14304 -0.900171 0.817299
lowerneck -4.1532 -1.73475 4.20925
upperneck -3.48297 -2.56662 -7.34831
head -0.543415 -1.30453 -3.10762
rclavicle 3.18055e-015 1.19271e-014
rhumerus -42.8589 7.06717 -80.1944
rradius 57.7649
rwrist -3.89747
rhand -13.3873 -17.4731
rfingers 7.12502
rthumb 12.7198 -47.0657
lclavicle 3.18055e-015 1.19271e-014
lhumerus -42.3973 -8.39888 82.9187
lradius 63.3404
lwrist -0.358574
lhand -0.456815 7.86625
lfingers 7.12502
lthumb 25.1528 36.2291
rfemur -18.4826 14.4784 20.5221
rtibia 30.844
rfoot -13.8762 -2.46147
rtoes 2.10544
lfemur -8.50307 -3.65674 -10.877
ltibia 51.2858
lfoot -4.15579 -25.7347
ltoes -4.24512
560
root 24.5156 17.5932 11.9776 3.57127 61.5573 0.077395
lowerback 19.4581 -2.41591 3.90901
upperback 6.29714 -1.99738 2.34657
thorax -4.12903 -0.862362 0.723157
lowerneck -4.16427 -1.69547 4.25281
upperneck -3.34648 -2.51128 -7.47416
head -0.496959 -1.27892 -3.15944
rclavicle 9.14409e-015 -4.77083e-015
rhumerus -42.7815 6.73042 -79.9617
rradius 56.9823
rwrist -3.54901
rhand -13.3151 -17.5325
rfingers 7.12502
rthumb 12.7895 -47.1207
lclavicle 9.14409e-015 -4.77083e-015
lhumerus -42.3768 -8.3371 82.8618
lradius 63.2078
lwrist -0.296532
lhand -0.47721 7.9408
lfingers 7.12502
lthumb 25.1332 36.3064
rfemur -17.7864 14.4699 20.9302
rtibia 30.4886
rfoot -13.9137 -2.42954
rtoes 2.106
lfemur -9.31616 -3.24138 -10.6661
ltibia 53.0071
lfoot -4.83333 -25.0213
ltoes -4.75366
561
root 24.5605 17.5962 12.0234 2.99674 61.5159 -0.301819
lowerback 19.4853 -2.39493 4.1552
upperback 6.32726 -1.91651 2.41188
thorax -4.1143 -0.820481 0.635663
lowerneck -4.17151 -1.66331 4.28877
upperneck -3.19657 -2.46418 -7.60003
head -0.447183 -1.25753 -3.20998
rclavicle 5.725e-014 -3.57812e-014
rhumerus -42.6991 6.39417 -79.7089
rradius 56.182
rwrist -3.17368
rhand -13.2567 -17.5873
rfingers 7.12502
rthumb 12.8458 -47.172
lclavicle 5.725e-014 -3.57812e-014
lhumerus -42.3539 -8.28904 82.8165
lradius 63.0762
lwrist -0.242995
lhand -0.493703 8.00183
lfingers 7.12502
lthumb 25.1174 36.3697
rfemur -17.0915 14.4335 21.335
rtibia 30.119
rfoot -13.9407 -2.36321
rtoes 2.08942
lfemur -10.1264 -2.78595 -10.4746
ltibia 54.6276
lfoot -5.68688 -24.2558
ltoes -5.23611
562
root 24.6053 17.5992 12.0682 2.43065 61.4617 -0.67875
lowerback 19.5102 -2.36561 4.38921
upperback 6.35145 -1.82719 2.47857
thorax -4.10355 -0.774689 0.554658
lowerneck -4.17251 -1.6373 4.31896
upperneck -3.03508 -2.42405 -7.72061
head -0.394981 -1.2397 -3.25774
rclavicle 3.06128e-014 -2.46493e-014
rhumerus -42.6164 6.05189 -79.4399
rradius 55.3676
rwrist -2.77141
rhand -13.206 -17.6311
rfingers 7.12502
rthumb 12.8946 -47.2127
lclavicle 3.06128e-014 -2.46493e-014
lhumerus -42.3352 -8.24953 82.7789
lradius 62.9501
lwrist -0.200811
lhand -0.493756 8.05934
lfingers 7.12502
lthumb 25.1174 36.4272
rfemur -16.4021 14.3802 21.7321
rtibia 29.7373
rfoot -13.96 -2.26838
rtoes 2.07476
lfemur -10.9357 -2.29182 -10.3036
ltibia 56.1281
lfoot -6.63163 -23.464
ltoes -5.65773
563
root 24.6502 17.6025 12.1122 1.89331 61.3938 -1.03427
lowerback 19.5301 -2.32688 4.59887
upperback 6.37162 -1.73069 2.5451
thorax -4.0932 -0.725617 0.485523
lowerneck -4.166 -1.61295 4.35183
upperneck -2.87057 -2.38567 -7.8476
head -0.343249 -1.22273 -3.30829
rclavicle 3.18055e-015 -6.91771e-014
rhumerus -42.5302 5.70546 -79.1559
rradius 54.5486
rwrist -2.35093
rhand -13.1549 -17.6675
rfingers 7.12502
rthumb 12.9439 -47.2461
lclavicle 3.18055e-015 -6.91771e-014
lhumerus -42.3182 -8.21515 82.747
lradius 62.8285
lwrist -0.167684
lhand -0.484416 8.10365
lfingers 7.12502
lthumb 25.1263 36.4703
rfemur -15.7251 14.3174 22.1106
rtibia 29.3493
rfoot -13.9759 -2.14861
rtoes 2.082
lfemur -11.7442 -1.76587 -10.1635
ltibia 57.4903
lfoot -7.59559 -22.6642
ltoes -6.01632
564
root 24.6952 17.6062 12.1556 1.40141 61.312 -1.35078
lowerback 19.5448 -2.27754 4.77702
upperback 6.38601 -1.62717 2.60811
thorax -4.08495 -0.673483 0.428741
lowerneck -4.16621 -1.59415 4.38242
upperneck -2.69302 -2.35372 -7.96775
head -0.286385 -1.20936 -3.35636
rclavicle -2.14687e-014 3.57812e-014
rhumerus -42.443 5.34802 -78.8584
rradius 53.7302
rwrist -1.91353
rhand -13.0944 -17.7057
rfingers 7.12502
rthumb 13.0022 -47.2805
lclavicle -2.14687e-014 3.57812e-014
lhumerus -42.3103 -8.18396 82.7191
lradius 62.7183
lwrist -0.143104
lhand -0.459959 8.14648
lfingers 7.12502
lthumb 25.1497 36.5098
rfemur -15.063 14.2533 22.4604
rtibia 28.9586
rfoot -13.9911 -2.00655
rtoes 2.14063
lfemur -12.5503 -1.21987 -10.0629
ltibia 58.7008
lfoot -8.50928 -21.8694
ltoes -6.27122
565
root 24.7401 17.6098 12.1985 0.96031 61.2194 -1.62202
lowerback 19.5545 -2.2181 4.9217
upperback 6.39512 -1.51773 2.6661
thorax -4.07862 -0.618847 0.384082
lowerneck -4.15095 -1.57535 4.40013
upperneck -2.52109 -2.32072 -8.07164
head -0.233479 -1.19506 -3.39623
rclavicle -9.54166e-015 -2.38542e-015
rhumerus -42.3575 4.97751 -78.5493
rradius 52.9157
rwrist -1.46278
rhand -13.0196 -17.7414
rfingers 7.12502
rthumb 13.0743 -47.3116
lclavicle -9.54166e-015 -2.38542e-015
lhumerus -42.3127 -8.15752 82.6937
lradius 62.62
lwrist -0.120022
lhand -0.427195 8.18394
lfingers 7.12502
lthumb 25.1811 36.5429
rfemur -14.4185 14.1919 22.7789
rtibia 28.5706
rfoot -14.0075 -1.84862
rtoes 2.2453
lfemur -13.3505 -0.660064 -10.0066
ltibia 59.7503
lfoot -9.35878 -21.0793
ltoes -6.47769
566
root 24.785 17.6135 12.2411 0.578912 61.1201 -1.83906
lowerback 19.5607 -2.15238 5.0298
upperback 6.39711 -1.40806 2.71569
thorax -4.07732 -0.564616 0.351078
lowerneck -4.12159 -1.55433 4.41578
upperneck -2.35495 -2.28429 -8.16513
head -0.184411 -1.17875 -3.43197
rclavicle -2.74323e-014 3.18055e-014
rhumerus -42.2802 4.59615 -78.2349
rradius 52.1189
rwrist -1.00091
rhand -12.9317 -17.781
rfingers 7.12502
rthumb 13.159 -47.3457
lclavicle -2.74323e-014 3.18055e-014
lhumerus -42.3298 -8.13028 82.6639
lradius 62.5326
lwrist -0.0957046
lhand -0.387686 8.21579
lfingers 7.12502
lthumb 25.219 36.5694
rfemur -13.7934 14.1348 23.0616
rtibia 28.19
rfoot -14.0278 -1.67901
rtoes 2.40516
lfemur -14.1437 -0.0971123 -10.0002
ltibia 60.6324
lfoot -10.1455 -20.2924
ltoes -6.70223
567
root 24.8299 17.6169 12.2834 0.242008 61.0137 -2.01717
lowerback 19.5588 -2.08137 5.11087
upperback 6.39653 -1.29802 2.75728
thorax -4.07402 -0.510461 0.324521
lowerneck -4.08451 -1.5311 4.42359
upperneck -2.19221 -2.24424 -8.24157
head -0.137166 -1.16041 -3.4602
rclavicle -7.07673e-014 6.59965e-014
rhumerus -42.206 4.20185 -77.9173
rradius 51.3407
rwrist -0.533573
rhand -12.8302 -17.8188
rfingers 7.12502
rthumb 13.2569 -47.3772
lclavicle -7.07673e-014 6.59965e-014
lhumerus -42.362 -8.10498 82.628
lradius 62.4637
lwrist -0.0678052
lhand -0.352027 8.24162
lfingers 7.12502
lthumb 25.2531 36.5904
rfemur -13.187 14.0843 23.317
rtibia 27.821
rfoot -14.0534 -1.49997
rtoes 2.61114
lfemur -14.9253 0.461171 -10.0354
ltibia 61.3453
lfoot -10.8751 -19.5326
ltoes -6.94331
568
root 24.8749 17.6203 12.3254 -0.0497766 60.9024 -2.156
lowerback 19.552 -2.007 5.16793
upperback 6.39138 -1.18935 2.78971
thorax -4.07282 -0.457326 0.302009
lowerneck -4.03838 -1.50516 4.42215
upperneck -2.03456 -2.2 -8.29633
head -0.0924294 -1.13969 -3.47899
rclavicle -2.38542e-015 -1.11319e-014
rhumerus -42.1435 3.80063 -77.6007
rradius 50.5953
rwrist -0.0737825
rhand -12.7254 -17.8635
rfingers 7.12502
rthumb 13.3578 -47.4153
lclavicle -2.38542e-015 -1.11319e-014
lhumerus -42.4126 -8.08331 82.5855
lradius 62.4125
lwrist -0.0285114
lhand -0.320432 8.26902
lfingers 7.12502
lthumb 25.2834 36.6135
rfemur -12.5994 14.0369 23.5461
rtibia 27.4652
rfoot -14.0855 -1.31742
rtoes 2.82667
lfemur -15.6949 1.00619 -10.1129
ltibia 61.8879
lfoot -11.5404 -18.8253
ltoes -7.14439
569
root 24.9201 17.6233 12.367 -0.310425 60.7891 -2.26959
lowerback 19.5403 -1.93292 5.21124
upperback 6.38323 -1.08479 2.81278
thorax -4.07234 -0.406418 0.278158
lowerneck -3.98803 -1.47589 4.42293
upperneck -1.88103 -2.15139 -8.34121
head -0.049321 -1.1167 -3.49468
rclavicle 1.98785e-015 -3.97569e-015
rhumerus -42.0926 3.39464 -77.2905
rradius 49.8894
rwrist 0.370067
rhand -12.6226 -17.9155
rfingers 7.12502
rthumb 13.4569 -47.4608
lclavicle 1.98785e-015 -3.97569e-015
lhumerus -42.4812 -8.06829 82.5324
lradius 62.3795
lwrist 0.0280351
lhand -0.292712 8.29562
lfingers 7.12502
lthumb 25.31 36.6364
rfemur -12.0291 13.9938 23.7559
rtibia 27.1254
rfoot -14.1269 -1.13341
rtoes 3.05869
lfemur -16.4487 1.53357 -10.2251
ltibia 62.262
lfoot -12.1676 -18.1663
ltoes -7.36095
570
root 24.9656 17.6258 12.4082 -0.554815 60.6754 -2.37238
lowerback 19.527 -1.86007 5.2503
upperback 6.37205 -0.983377 2.82776
thorax -4.07434 -0.357216 0.248847
lowerneck -3.94612 -1.44467 4.43188
upperneck -1.72181 -2.10025 -8.38408
head -0.0027704 -1.09277 -3.51142
rclavicle -7.95139e-015 -5.1684e-014
rhumerus -42.0568 2.98216 -76.9871
rradius 49.2258
rwrist 0.793469
rhand -12.5371 -17.9629
rfingers 7.12502
rthumb 13.5394 -47.5027
lclavicle -7.95139e-015 -5.1684e-014
lhumerus -42.5701 -8.06472 82.4707
lradius 62.3686
lwrist 0.101846
lhand -0.264998 8.3283
lfingers 7.12502
lthumb 25.3365 36.6653
rfemur -11.474 13.9494 23.9556
rtibia 26.8029
rfoot -14.1774 -0.94809
rtoes 3.28821
lfemur -17.1855 2.03866 -10.3628
ltibia 62.4708
lfoot -12.7559 -17.5636
ltoes -7.55931
571
root 25.0113 17.6275 12.449 -0.786079 60.5606 -2.46805
lowerback 19.5091 -1.78885 5.28749
upperback 6.36023 -0.885363 2.83572
thorax -4.07475 -0.309713 0.213812
lowerneck -3.90928 -1.41348 4.45115
upperneck -1.56721 -2.04986 -8.42706
head 0.0430821 -1.06933 -3.53028
rclavicle -9.42239e-014 7.39479e-014
rhumerus -42.0365 2.57166 -76.6934
rradius 48.6129
rwrist 1.18152
rhand -12.4653 -18.0182
rfingers 7.12502
rthumb 13.6086 -47.5534
lclavicle -9.42239e-014 7.39479e-014
lhumerus -42.6725 -8.07094 82.401
lradius 62.3731
lwrist 0.189582
lhand -0.241347 8.35787
lfingers 7.12502
lthumb 25.3592 36.6916
rfemur -10.9436 13.905 24.1459
rtibia 26.5168
rfoot -14.2459 -0.760235
rtoes 3.53161
lfemur -17.9133 2.51695 -10.5231
ltibia 62.5548
lfoot -13.3412 -17.0112
ltoes -7.73222
572
root 25.0574 17.6284 12.4893 -1.0179 60.4468 -2.57039
lowerback 19.4886 -1.71982 5.3311
upperback 6.34876 -0.789544 2.83887
thorax -4.07346 -0.263223 0.170521
lowerneck -3.87557 -1.38528 4.48726
upperneck -1.4259 -2.00488 -8.47671
head 0.0846834 -1.04857 -3.55477
rclavicle -1.20066e-013 -2.54444e-014
rhumerus -42.0287 2.1598 -76.4082
rradius 48.049
rwrist 1.53598
rhand -12.4114 -18.0744
rfingers 7.12502
rthumb 13.6605 -47.6061
lclavicle -1.20066e-013 -2.54444e-014
lhumerus -42.7881 -8.09429 82.3266
lradius 62.3942
lwrist 0.290929
lhand -0.211132 8.39363
lfingers 7.12502
lthumb 25.3881 36.7233
rfemur -10.4303 13.8605 24.3357
rtibia 26.2561
rfoot -14.3251 -0.576341
rtoes 3.75532
lfemur -18.6204 2.96557 -10.696
ltibia 62.4852
lfoot -13.8936 -16.5085
ltoes -7.84549
573
root 25.1038 17.6275 12.5297 -1.19381 60.3134 -2.60199
lowerback 19.4668 -1.64372 5.34162
upperback 6.33285 -0.69157 2.83502
thorax -4.07591 -0.216107 0.137999
lowerneck -3.86798 -1.32968 4.56882
upperneck -1.22062 -1.9218 -8.57013
head 0.153392 -1.01058 -3.60391
rclavicle 5.68524e-014 -3.4191e-014
rhumerus -42.0169 1.73981 -76.1058
rradius 47.4166
rwrist 1.97097
rhand -12.3526 -18.1035
rfingers 7.12502
rthumb 13.7172 -47.6313
lclavicle 5.68524e-014 -3.4191e-014
lhumerus -42.9255 -8.06901 82.2394
lradius 62.4492
lwrist 0.408074
lhand -0.181273 8.41797
lfingers 7.12502
lthumb 25.4167 36.7436
rfemur -9.93463 13.8772 24.4788
rtibia 26.0296
rfoot -14.435 -0.377914
rtoes 4.29152
lfemur -19.2452 3.4661 -10.9104
ltibia 62.3262
lfoot -14.1912 -16.0192
ltoes -7.4793
